<svg id="Layer_1" data-name="Layer 1" xmlns="http://www.w3.org/2000/svg" viewBox="0 0 1629.96 1838"><defs><style>.cls-1{fill:#fff;}.cls-2{fill:#f58220;}.cls-3{fill:#58595b;}.cls-4{fill:#231f20;}</style></defs><title>Artboard 11</title><rect class="cls-1" x="58.12" y="61.13" width="531.55" height="496.54"/><path class="cls-2" d="M436.52,94a73,73,0,0,1-2.9,20c-4.1,14.12-11.43,23.19-16.73,29.61-17.54,21.26-38.78,31.18-46.66,34.75a291.82,291.82,0,0,1-27.68,11c-8.05,2.6-10,2.74-14.8,5.15-5.37,2.68-15.36,7.69-20.6,18.66a35.4,35.4,0,0,0-3.22,16.73,14,14,0,0,0,1,5.15s0-6.53,3.54-9c3.2-2.22,8.11.06,8.69.32,4.15,1.93,4.76,5.63,7.08,9,7.81,11.41,27.22,10.69,29.28,10.62,6.43-.24,11.11-2,16.09-3.87.22-.08,4.19-2.25,4.19-2.25a16.64,16.64,0,0,1-9-.32c-4.46-1.53-7-5.54-8.37-7.72a24.62,24.62,0,0,1-1.61-3.87,44,44,0,0,0,9.65,5.8c4.25,1.71,10.43,3.28,19.31,3.7,13.84.64,23-2,30.9-4.35,2.16-.65,30.83-10.2,41.51-32.34,1.26-2.61,3.54-9.49,3.54-9.49s-2.45,2.92-5.47,6a58.34,58.34,0,0,1-14.48,10.7c-8.27,4.25-16.39,4.21-21.88,4.19a45.37,45.37,0,0,1-6.12-.65,81,81,0,0,0,13.84-2.89,43.23,43.23,0,0,0,19.47-13.28c8.1-9.58,10-20.81,13.68-41.76,2-11.58,2.89-21.88,2.89-21.88a73.81,73.81,0,0,1-5.79,13.52c-2.5,4.53-7.62,13.08-12.71,17.54a29.63,29.63,0,0,1-15.93,7.56,24.64,24.64,0,0,1-4.51,0,37.41,37.41,0,0,0,7.35-4.51c2.64-2.13,7-7.08,9.92-17.05a80.13,80.13,0,0,0,3-27A78.82,78.82,0,0,0,436.52,94Z"/><path class="cls-2" d="M182,170.86s6.85,14.67,15.13,26.07c2.88,4,14.92,17.71,35.08,25.1,6.47,2.37,18.89,5.6,29.28,1.61,6-2.29,17.86-7,17.86-7a13.88,13.88,0,0,1,6.28-1.08,8.81,8.81,0,0,1,5.15,2.89c1.59,1.77,2,4,2.89,8.37.14.7.38,4.93.38,4.93s-.38-4.93-2.71-6.54c-1.82-1.26-4.77,1.22-6.43,2.57-7.74,6.28-12.13,12.64-14.73,15.85-6,7.45-12.83,11.05-20.11,14.89-8.46,4.46-14.9,5.9-24.46,8a40.2,40.2,0,0,1-16.49-.32,11.78,11.78,0,0,1-2.09-1,58,58,0,0,0,7.64-1.61c3.11-.9,6.49-2.57,11.7-6.48,3.79-2.83,5.44-4.81,6.91-7.58a5.69,5.69,0,0,0,.7-1.79s-3.32,2.36-4.83,3.54c-6.18,4.84-13.65,5.56-19.31,6.11-7.12.69-12,1.16-17.46-1.45s-10.62-9-12.07-12a26.6,26.6,0,0,1-3.62-8.93c-.42-2.27,0-2.5,0-2.5s2.1,2.69,2.9,3.46c4.83,4.67,13.6,5.87,18.51,5.55a28.55,28.55,0,0,0,8.68-2.65,19,19,0,0,0,2-1.13,21.25,21.25,0,0,1-3.38-.24c-4.83-1.06-8.79-6.31-11.67-10.06-6.74-8.77-8.81-18.26-10.38-25.1a92.88,92.88,0,0,1-2.28-16c-.25-3.54-.33-8.62-.21-10.19a28.51,28.51,0,0,1,.48-3.8A4.3,4.3,0,0,1,182,170.86Z"/><path class="cls-2" d="M339.77,164.06a13.66,13.66,0,0,0-4.58-3,15.81,15.81,0,0,0-8.33-.36,25.42,25.42,0,0,0-8.45,3.49,64.62,64.62,0,0,0-7.12,4.95c-3.92,2.89-8,5.91-12.55,7.73a27.34,27.34,0,0,1-31.86-7.61c-.68-.84-1.81-2.17-1.81-2.17a30.69,30.69,0,0,0,4.95,7.48,25.61,25.61,0,0,0,8.57,6.4,31.82,31.82,0,0,0,13.4,2.53s-1.38.49-3.87,1.69c-2,1-3.73,1.81-4.94,3.62a6.82,6.82,0,0,0-1.09,5.19,4.88,4.88,0,0,0,.72,1.33,9.32,9.32,0,0,1,.85-4.22c1.12-2.18,3.78-2.9,6-3.5a20,20,0,0,1,7.24-.36c8.55.34,15.88-6.41,18.11-8.45,3.94-3.63,3.22-4.9,8.44-9.54s7.94-5.22,9.42-5.43A20.81,20.81,0,0,1,339.77,164.06Z"/><path class="cls-2" d="M305.86,244.91c-.43-4.15,18.48,13.38,2.58,52.57-1.87,4.6-5.73,10.81-10.52,23.74-2.75,7.4-15.32,34-17.16,43.94-1.49,8.09-3.45,18.71.32,31.17,1.29,4.25,8.3,25.39,29.93,34,4.05,1.61,17.46,6.95,31.22,1.58,22-8.58,28.25-38.41,28.8-42.34a59.62,59.62,0,0,0-.8-20.62,74.47,74.47,0,0,1,3.21,10.7c4.18,21.06-6.39,39.64-8,42.18-3.88,6-12.74,19.56-30.57,24.56-24.2,6.77-44-8.15-45.7-9.45-20.16-15.69-20-40.39-19.95-46.27.11-17.24,5.69-33,8.93-39.19,1.87-3.58,5.94-12.45,9.17-18.42C295.21,318.4,311.28,296.84,305.86,244.91Z"/><path class="cls-2" d="M310.27,316a61.43,61.43,0,0,0-6.75,23.81c-.63,8-1.43,18,5.21,25.13,7.08,7.62,18.07,7.08,20.08,7,14.27-.7,25.47-12.39,29.33-20.92.72-1.6,2.21-5.12,2.21-5.12a68.54,68.54,0,0,1-2.38,8.58,49.38,49.38,0,0,1-14.43,20.05c-4.8,3.94-11.15,9.13-20.64,9.6-2.53.12-10.91.54-17.15-4.78-9.45-8-7.38-23.52-6-34.09A73.49,73.49,0,0,1,310.27,316Z"/><path class="cls-2" d="M295.89,294.44a261.24,261.24,0,0,1-18.67,46.66c-3.1,6-8.11,17.48-21,30.58-8.52,8.65-14.38,10.63-17.92,11.58-13.17,3.56-25-4.35-27.67-6.11,0,0-11-7.3-15.45-20A43.65,43.65,0,0,1,192.91,345a38,38,0,0,1,.32-5.14,85.68,85.68,0,0,0,4.5,11.58c.24.49,6,11.94,17.38,16.74,10.94,4.61,21.78.84,26.07-.65C278.14,354.64,295.89,294.44,295.89,294.44Z"/><polygon class="cls-3" points="141.23 474.17 141.23 514.64 176.69 474.17 185.6 474.17 141.23 524.79 141.23 524.85 133.32 524.85 133.32 474.17 141.23 474.17"/><polygon class="cls-3" points="156.75 474.17 156.75 486.81 148.84 495.89 148.84 474.17 156.75 474.17"/><polygon class="cls-3" points="185.6 524.85 175.88 524.85 160.86 512.21 164.97 507.52 185.6 524.85"/><polygon class="cls-3" points="337.62 489.96 337.62 478.86 314.38 478.86 314.38 520.16 337.62 520.16 337.62 516.54 337.62 505.62 337.62 504.79 321.99 504.79 321.99 500.1 345.53 500.1 345.53 503.9 345.53 504.79 345.53 505.62 345.53 516.54 345.53 524.85 306.47 524.85 306.47 474.17 345.53 474.17 345.53 489.96 337.62 489.96"/><polygon class="cls-3" points="457.36 524.85 418.3 524.85 418.3 474.17 426.21 474.17 426.21 520.16 449.44 520.16 449.44 474.17 457.36 474.17 457.36 524.85"/><path class="cls-3" d="M495,520.16h19.43v4.69H471.61V474.17h7.91v46h7.61v-46H495Z"/><path class="cls-3" d="M199.85,474.17v50.68h39.06V474.17Zm31.15,46H207.76v-41.3H231Z"/><polygon class="cls-3" points="404.05 524.85 394.33 524.85 379.31 512.21 383.42 507.52 404.05 524.85"/><path class="cls-3" d="M390.93,484.5v8.19c0,3.14-4.31,5.69-9.62,5.69H374.9v4.69h9.62c7.91-.12,14.32-4,14.32-8.66V482.84c0-4.81-6.61-8.73-14.72-8.73H359.78v50.74h7.91V478.8h13.62C386.62,478.8,390.93,481.35,390.93,484.5Z"/><polygon class="cls-3" points="284.31 474.17 284.31 503.78 261.07 474.11 253.16 474.11 253.16 524.85 261.07 524.85 261.07 485.27 284.31 514.88 284.31 524.85 292.22 524.85 292.22 474.17 284.31 474.17"/><rect class="cls-1" x="58.12" y="639.05" width="531.55" height="496.54"/><path class="cls-4" d="M436.52,671.87a73,73,0,0,1-2.9,20c-4.1,14.11-11.43,23.18-16.73,29.6-17.54,21.26-38.78,31.18-46.66,34.76a293.2,293.2,0,0,1-27.68,10.94c-8.05,2.6-10,2.74-14.8,5.15C322.38,775,312.39,780,307.15,791a35.38,35.38,0,0,0-3.22,16.73,14.08,14.08,0,0,0,1,5.15s0-6.53,3.54-9c3.2-2.23,8.11,0,8.69.32,4.15,1.92,4.76,5.62,7.08,9,7.81,11.41,27.22,10.7,29.28,10.62,6.43-.24,11.11-2,16.09-3.86.22-.08,4.19-2.25,4.19-2.25a16.69,16.69,0,0,1-9-.33c-4.46-1.53-7-5.54-8.37-7.72a24.24,24.24,0,0,1-1.61-3.86,43.68,43.68,0,0,0,9.65,5.79c4.25,1.72,10.43,3.29,19.31,3.7,13.84.65,23-2,30.9-4.34,2.16-.65,30.83-10.2,41.51-32.34,1.26-2.62,3.54-9.5,3.54-9.5s-2.45,2.92-5.47,6a58.34,58.34,0,0,1-14.48,10.7c-8.27,4.24-16.39,4.2-21.88,4.18a44.34,44.34,0,0,1-6.12-.64,80.41,80.41,0,0,0,13.84-2.9,43.23,43.23,0,0,0,19.47-13.28c8.1-9.57,10-20.8,13.68-41.75,2-11.58,2.89-21.88,2.89-21.88A73.58,73.58,0,0,1,455.83,723c-2.5,4.53-7.62,13.09-12.71,17.54a29.48,29.48,0,0,1-15.93,7.56,24.64,24.64,0,0,1-4.51,0,37.65,37.65,0,0,0,7.35-4.5c2.64-2.13,7-7.08,9.92-17.06a80.1,80.1,0,0,0,3-27A78.88,78.88,0,0,0,436.52,671.87Z"/><path class="cls-4" d="M182,748.79s6.85,14.67,15.13,26.06c2.88,4,14.92,17.72,35.08,25.11,6.47,2.37,18.89,5.59,29.28,1.61,6-2.29,17.86-7,17.86-7a14,14,0,0,1,6.28-1.09,8.81,8.81,0,0,1,5.15,2.9c1.59,1.77,2,4,2.89,8.36.14.71.38,4.94.38,4.94s-.38-4.94-2.71-6.55c-1.82-1.25-4.77,1.23-6.43,2.58-7.74,6.28-12.13,12.63-14.73,15.85-6,7.44-12.83,11-20.11,14.88-8.46,4.47-14.9,5.91-24.46,8a40.41,40.41,0,0,1-16.49-.32,12.36,12.36,0,0,1-2.09-1,58,58,0,0,0,7.64-1.61c3.11-.9,6.49-2.57,11.7-6.48,3.79-2.82,5.44-4.81,6.91-7.57a5.77,5.77,0,0,0,.7-1.8s-3.32,2.36-4.83,3.54c-6.18,4.84-13.65,5.57-19.31,6.12-7.12.69-12,1.16-17.46-1.45s-10.62-9-12.07-12a26.38,26.38,0,0,1-3.62-8.93c-.42-2.27,0-2.49,0-2.49s2.1,2.68,2.9,3.46c4.83,4.66,13.6,5.87,18.51,5.55a28.59,28.59,0,0,0,8.68-2.66,18,18,0,0,0,2-1.12,20.46,20.46,0,0,1-3.38-.25c-4.83-1.06-8.79-6.3-11.67-10-6.74-8.78-8.81-18.27-10.38-25.1a92.88,92.88,0,0,1-2.28-16c-.25-3.55-.33-8.62-.21-10.19a28.38,28.38,0,0,1,.48-3.81A4.29,4.29,0,0,1,182,748.79Z"/><path class="cls-4" d="M339.77,742a13.62,13.62,0,0,0-4.58-3,16,16,0,0,0-8.33-.36,25.23,25.23,0,0,0-8.45,3.5,63.29,63.29,0,0,0-7.12,4.95c-3.92,2.89-8,5.9-12.55,7.72a27.35,27.35,0,0,1-31.86-7.6c-.68-.84-1.81-2.17-1.81-2.17a30.9,30.9,0,0,0,4.95,7.48,25.62,25.62,0,0,0,8.57,6.39,31.93,31.93,0,0,0,13.4,2.54,40.16,40.16,0,0,0-3.87,1.69c-2,1-3.73,1.81-4.94,3.62a6.82,6.82,0,0,0-1.09,5.19,5.06,5.06,0,0,0,.72,1.33,9.35,9.35,0,0,1,.85-4.23c1.12-2.18,3.78-2.89,6-3.5a20.18,20.18,0,0,1,7.24-.36c8.55.34,15.88-6.4,18.11-8.45,3.94-3.63,3.22-4.89,8.44-9.53s7.94-5.23,9.42-5.43A20.81,20.81,0,0,1,339.77,742Z"/><path class="cls-4" d="M305.86,822.84c-.43-4.16,18.48,13.38,2.58,52.57-1.87,4.6-5.73,10.81-10.52,23.74-2.75,7.39-15.32,34-17.16,43.94-1.49,8.08-3.45,18.7.32,31.16,1.29,4.25,8.3,25.39,29.93,34,4.05,1.61,17.46,6.94,31.22,1.57,22-8.58,28.25-38.4,28.8-42.34a59.66,59.66,0,0,0-.8-20.62,74.81,74.81,0,0,1,3.21,10.71c4.18,21.06-6.39,39.64-8,42.18-3.88,6-12.74,19.56-30.57,24.55-24.2,6.78-44-8.15-45.7-9.44-20.16-15.7-20-40.39-19.95-46.28.11-17.23,5.69-33,8.93-39.19,1.87-3.57,5.94-12.45,9.17-18.41C295.21,896.32,311.28,874.76,305.86,822.84Z"/><path class="cls-4" d="M310.27,893.91a61.45,61.45,0,0,0-6.75,23.82c-.63,8-1.43,18,5.21,25.13,7.08,7.62,18.07,7.08,20.08,7,14.27-.7,25.47-12.39,29.33-20.92.72-1.6,2.21-5.12,2.21-5.12a68.54,68.54,0,0,1-2.38,8.58,49.3,49.3,0,0,1-14.43,20c-4.8,3.94-11.15,9.14-20.64,9.6-2.53.13-10.91.54-17.15-4.77-9.45-8-7.38-23.52-6-34.09A73.5,73.5,0,0,1,310.27,893.91Z"/><path class="cls-4" d="M295.89,872.36A261.48,261.48,0,0,1,277.22,919c-3.1,6-8.11,17.47-21,30.57-8.52,8.66-14.38,10.63-17.92,11.59-13.17,3.55-25-4.36-27.67-6.12,0,0-11-7.3-15.45-20a43.71,43.71,0,0,1-2.25-12.23,38.17,38.17,0,0,1,.32-5.15,86.09,86.09,0,0,0,4.5,11.59c.24.48,6,11.93,17.38,16.73,10.94,4.62,21.78.85,26.07-.64C278.14,932.56,295.89,872.36,295.89,872.36Z"/><polygon class="cls-4" points="141.23 1052.1 141.23 1092.57 176.69 1052.1 185.6 1052.1 141.23 1102.71 141.23 1102.77 133.32 1102.77 133.32 1052.1 141.23 1052.1"/><polygon class="cls-4" points="156.75 1052.1 156.75 1064.74 148.84 1073.82 148.84 1052.1 156.75 1052.1"/><polygon class="cls-4" points="185.6 1102.77 175.88 1102.77 160.86 1090.13 164.97 1085.44 185.6 1102.77"/><polygon class="cls-4" points="337.62 1067.88 337.62 1056.79 314.38 1056.79 314.38 1098.08 337.62 1098.08 337.62 1094.46 337.62 1083.55 337.62 1082.71 321.99 1082.71 321.99 1078.03 345.53 1078.03 345.53 1081.83 345.53 1082.71 345.53 1083.55 345.53 1094.46 345.53 1102.77 306.47 1102.77 306.47 1052.1 345.53 1052.1 345.53 1067.88 337.62 1067.88"/><polygon class="cls-4" points="457.36 1102.77 418.3 1102.77 418.3 1052.1 426.21 1052.1 426.21 1098.08 449.44 1098.08 449.44 1052.1 457.36 1052.1 457.36 1102.77"/><path class="cls-4" d="M495,1098.08h19.43v4.69H471.61V1052.1h7.91v46h7.61v-46H495Z"/><path class="cls-4" d="M199.85,1052.1v50.67h39.06V1052.1Zm31.15,46H207.76v-41.29H231Z"/><polygon class="cls-4" points="404.05 1102.77 394.33 1102.77 379.31 1090.13 383.42 1085.44 404.05 1102.77"/><path class="cls-4" d="M390.93,1062.42v8.19c0,3.15-4.31,5.7-9.62,5.7H374.9V1081h9.62c7.91-.11,14.32-4,14.32-8.66v-11.57c0-4.81-6.61-8.72-14.72-8.72H359.78v50.73h7.91v-46h13.62C386.62,1056.73,390.93,1059.28,390.93,1062.42Z"/><polygon class="cls-4" points="284.31 1052.1 284.31 1081.71 261.07 1052.04 253.16 1052.04 253.16 1102.77 261.07 1102.77 261.07 1063.19 284.31 1092.8 284.31 1102.77 292.22 1102.77 292.22 1052.1 284.31 1052.1"/><rect class="cls-4" x="58.12" y="1236.82" width="531.55" height="496.54"/><path class="cls-1" d="M436.52,1269.65a73,73,0,0,1-2.9,19.95c-4.1,14.12-11.43,23.19-16.73,29.61-17.54,21.25-38.78,31.17-46.66,34.75a293.2,293.2,0,0,1-27.68,10.94c-8.05,2.61-10,2.75-14.8,5.15-5.37,2.69-15.36,7.7-20.6,18.67a35.4,35.4,0,0,0-3.22,16.73,14.08,14.08,0,0,0,1,5.15s0-6.53,3.54-9c3.2-2.22,8.11.06,8.69.32,4.15,1.93,4.76,5.62,7.08,9,7.81,11.42,27.22,10.7,29.28,10.62,6.43-.23,11.11-2,16.09-3.86.22-.08,4.19-2.25,4.19-2.25a16.75,16.75,0,0,1-9-.32c-4.46-1.53-7-5.55-8.37-7.73a24.24,24.24,0,0,1-1.61-3.86,43.68,43.68,0,0,0,9.65,5.79c4.25,1.72,10.43,3.29,19.31,3.7,13.84.65,23-2,30.9-4.34,2.16-.65,30.83-10.2,41.51-32.34,1.26-2.62,3.54-9.5,3.54-9.5s-2.45,2.92-5.47,6a58.34,58.34,0,0,1-14.48,10.7c-8.27,4.24-16.39,4.21-21.88,4.18a44.34,44.34,0,0,1-6.12-.64,80.41,80.41,0,0,0,13.84-2.9,43.31,43.31,0,0,0,19.47-13.27c8.1-9.58,10-20.81,13.68-41.76,2-11.58,2.89-21.88,2.89-21.88a73.58,73.58,0,0,1-5.79,13.51c-2.5,4.54-7.62,13.09-12.71,17.54a29.59,29.59,0,0,1-15.93,7.57,25.66,25.66,0,0,1-4.51,0,37.41,37.41,0,0,0,7.35-4.51c2.64-2.13,7-7.08,9.92-17.06a80.06,80.06,0,0,0,3-27A78.82,78.82,0,0,0,436.52,1269.65Z"/><path class="cls-1" d="M182,1346.56s6.85,14.67,15.13,26.07c2.88,4,14.92,17.71,35.08,25.1,6.47,2.37,18.89,5.6,29.28,1.61,6-2.29,17.86-7,17.86-7a14,14,0,0,1,6.28-1.09,8.81,8.81,0,0,1,5.15,2.9c1.59,1.77,2,4,2.89,8.37.14.7.38,4.93.38,4.93s-.38-4.93-2.71-6.54c-1.82-1.26-4.77,1.22-6.43,2.57-7.74,6.28-12.13,12.63-14.73,15.85-6,7.44-12.83,11-20.11,14.88-8.46,4.47-14.9,5.91-24.46,8a40.41,40.41,0,0,1-16.49-.32,11.6,11.6,0,0,1-2.09-1,56.12,56.12,0,0,0,7.64-1.61c3.11-.9,6.49-2.57,11.7-6.47,3.79-2.83,5.44-4.82,6.91-7.58a5.77,5.77,0,0,0,.7-1.8s-3.32,2.36-4.83,3.54c-6.18,4.84-13.65,5.57-19.31,6.12-7.12.69-12,1.16-17.46-1.45s-10.62-9-12.07-12a26.38,26.38,0,0,1-3.62-8.93c-.42-2.26,0-2.49,0-2.49s2.1,2.69,2.9,3.46c4.83,4.66,13.6,5.87,18.51,5.55a28.31,28.31,0,0,0,8.68-2.66,18,18,0,0,0,2-1.12,21.25,21.25,0,0,1-3.38-.24c-4.83-1.06-8.79-6.31-11.67-10.06-6.74-8.78-8.81-18.27-10.38-25.1a92.88,92.88,0,0,1-2.28-16c-.25-3.54-.33-8.62-.21-10.19a28.76,28.76,0,0,1,.48-3.81A4.29,4.29,0,0,1,182,1346.56Z"/><path class="cls-1" d="M339.77,1339.76a13.78,13.78,0,0,0-4.58-3,16,16,0,0,0-8.33-.36,25.23,25.23,0,0,0-8.45,3.5,63.29,63.29,0,0,0-7.12,4.95c-3.92,2.89-8,5.9-12.55,7.72a27.35,27.35,0,0,1-31.86-7.6c-.68-.84-1.81-2.17-1.81-2.17a30.9,30.9,0,0,0,4.95,7.48,25.74,25.74,0,0,0,8.57,6.4,32,32,0,0,0,13.4,2.53,40.16,40.16,0,0,0-3.87,1.69c-2,1-3.73,1.81-4.94,3.62a6.82,6.82,0,0,0-1.09,5.19,5.06,5.06,0,0,0,.72,1.33,9.37,9.37,0,0,1,.85-4.23c1.12-2.18,3.78-2.89,6-3.5a20.42,20.42,0,0,1,7.24-.36c8.55.35,15.88-6.4,18.11-8.45,3.94-3.63,3.22-4.89,8.44-9.53s7.94-5.23,9.42-5.43A20.81,20.81,0,0,1,339.77,1339.76Z"/><path class="cls-1" d="M305.86,1420.61c-.43-4.15,18.48,13.38,2.58,52.57-1.87,4.6-5.73,10.81-10.52,23.74-2.75,7.39-15.32,33.95-17.16,43.94-1.49,8.08-3.45,18.7.32,31.16,1.29,4.26,8.3,25.39,29.93,34,4.05,1.61,17.46,6.94,31.22,1.57,22-8.58,28.25-38.4,28.8-42.34a59.58,59.58,0,0,0-.8-20.61,74.47,74.47,0,0,1,3.21,10.7c4.18,21.06-6.39,39.64-8,42.18-3.88,6-12.74,19.56-30.57,24.55-24.2,6.78-44-8.14-45.7-9.44-20.16-15.7-20-40.39-19.95-46.27.11-17.24,5.69-33,8.93-39.19,1.87-3.58,5.94-12.46,9.17-18.42C295.21,1494.09,311.28,1472.53,305.86,1420.61Z"/><path class="cls-1" d="M310.27,1491.68a61.45,61.45,0,0,0-6.75,23.82c-.63,8-1.43,18,5.21,25.13,7.08,7.62,18.07,7.08,20.08,7,14.27-.69,25.47-12.38,29.33-20.91.72-1.6,2.21-5.12,2.21-5.12a68.12,68.12,0,0,1-2.38,8.57,49.44,49.44,0,0,1-14.43,20.06c-4.8,3.93-11.15,9.13-20.64,9.6-2.53.12-10.91.53-17.15-4.78-9.45-8-7.38-23.52-6-34.09A73.58,73.58,0,0,1,310.27,1491.68Z"/><path class="cls-1" d="M295.89,1470.14a261.56,261.56,0,0,1-18.67,46.66c-3.1,6-8.11,17.47-21,30.58-8.52,8.65-14.38,10.62-17.92,11.58-13.17,3.55-25-4.35-27.67-6.12,0,0-11-7.3-15.45-19.95a43.71,43.71,0,0,1-2.25-12.23,38.17,38.17,0,0,1,.32-5.15,85.53,85.53,0,0,0,4.5,11.59c.24.49,6,11.94,17.38,16.73,10.94,4.62,21.78.85,26.07-.64C278.14,1530.33,295.89,1470.14,295.89,1470.14Z"/><polygon class="cls-1" points="141.23 1649.87 141.23 1690.34 176.69 1649.87 185.6 1649.87 141.23 1700.48 141.23 1700.54 133.32 1700.54 133.32 1649.87 141.23 1649.87"/><polygon class="cls-1" points="156.75 1649.87 156.75 1662.51 148.84 1671.59 148.84 1649.87 156.75 1649.87"/><polygon class="cls-1" points="185.6 1700.54 175.88 1700.54 160.86 1687.9 164.97 1683.22 185.6 1700.54"/><polygon class="cls-1" points="337.62 1665.65 337.62 1654.56 314.38 1654.56 314.38 1695.86 337.62 1695.86 337.62 1692.24 337.62 1681.32 337.62 1680.49 321.99 1680.49 321.99 1675.8 345.53 1675.8 345.53 1679.6 345.53 1680.49 345.53 1681.32 345.53 1692.24 345.53 1700.54 306.47 1700.54 306.47 1649.87 345.53 1649.87 345.53 1665.65 337.62 1665.65"/><polygon class="cls-1" points="457.36 1700.54 418.3 1700.54 418.3 1649.87 426.21 1649.87 426.21 1695.86 449.44 1695.86 449.44 1649.87 457.36 1649.87 457.36 1700.54"/><path class="cls-1" d="M495,1695.86h19.43v4.68H471.61v-50.67h7.91v46h7.61v-46H495Z"/><path class="cls-1" d="M199.85,1649.87v50.67h39.06v-50.67Zm31.15,46H207.76v-41.3H231Z"/><polygon class="cls-1" points="404.05 1700.54 394.33 1700.54 379.31 1687.9 383.42 1683.22 404.05 1700.54"/><path class="cls-1" d="M390.93,1660.19v8.19c0,3.15-4.31,5.7-9.62,5.7H374.9v4.69h9.62c7.91-.12,14.32-4,14.32-8.67v-11.57c0-4.8-6.61-8.72-14.72-8.72H359.78v50.73h7.91v-46h13.62C386.62,1654.5,390.93,1657.05,390.93,1660.19Z"/><polygon class="cls-1" points="284.31 1649.87 284.31 1679.48 261.07 1649.81 253.16 1649.81 253.16 1700.54 261.07 1700.54 261.07 1660.97 284.31 1690.57 284.31 1700.54 292.22 1700.54 292.22 1649.87 284.31 1649.87"/><rect class="cls-1" x="782.35" y="105.33" width="764.02" height="408.13"/><path class="cls-2" d="M1138.36,132.31a73.74,73.74,0,0,1-2.9,19.95c-4.11,14.12-11.44,23.19-16.73,29.61-17.55,21.25-38.79,31.17-46.67,34.75a293.7,293.7,0,0,1-27.67,10.94c-8.05,2.61-10,2.75-14.81,5.15-5.36,2.69-15.35,7.7-20.59,18.67a35.27,35.27,0,0,0-3.22,16.73,14.23,14.23,0,0,0,1,5.15s0-6.53,3.54-9c3.21-2.22,8.12.06,8.69.32,4.15,1.93,4.76,5.62,7.08,9,7.82,11.42,27.23,10.7,29.29,10.62,6.42-.23,11.11-2,16.09-3.86.22-.08,4.18-2.25,4.18-2.25a16.75,16.75,0,0,1-9-.32c-4.45-1.53-7-5.55-8.37-7.73a25.26,25.26,0,0,1-1.61-3.86,43.6,43.6,0,0,0,9.66,5.79c4.25,1.72,10.42,3.29,19.31,3.7,13.84.65,23-2,30.89-4.34,2.17-.65,30.83-10.2,41.52-32.34,1.26-2.62,3.54-9.5,3.54-9.5s-2.45,2.92-5.47,6a58.42,58.42,0,0,1-14.49,10.7c-8.27,4.24-16.38,4.21-21.88,4.18a44.11,44.11,0,0,1-6.11-.64,80.2,80.2,0,0,0,13.83-2.9,43.25,43.25,0,0,0,19.47-13.27c8.11-9.58,10-20.81,13.68-41.76,2-11.58,2.9-21.88,2.9-21.88a73.24,73.24,0,0,1-5.8,13.51c-2.49,4.54-7.61,13.09-12.71,17.54a29.52,29.52,0,0,1-15.93,7.57,25.56,25.56,0,0,1-4.5,0,38.31,38.31,0,0,0,7.35-4.51c2.63-2.13,7-7.08,9.92-17.06a80.1,80.1,0,0,0,3-27A79.07,79.07,0,0,0,1138.36,132.31Z"/><path class="cls-2" d="M883.8,209.22s6.85,14.67,15.12,26.07c2.88,4,14.93,17.71,35.08,25.1,6.48,2.37,18.9,5.6,29.29,1.61,6-2.29,17.86-7,17.86-7a14,14,0,0,1,6.27-1.09,8.77,8.77,0,0,1,5.15,2.9c1.59,1.77,2,4,2.9,8.37.14.7.38,4.93.38,4.93s-.38-4.93-2.71-6.54c-1.83-1.26-4.78,1.22-6.44,2.57C979,272.46,974.57,278.81,972,282c-6,7.44-12.84,11-20.12,14.88-8.46,4.47-14.89,5.91-24.45,8a40.45,40.45,0,0,1-16.5-.32,12,12,0,0,1-2.09-1,56.12,56.12,0,0,0,7.64-1.61c3.12-.9,6.49-2.57,11.71-6.47,3.78-2.83,5.43-4.82,6.91-7.58a5.86,5.86,0,0,0,.69-1.8s-3.32,2.36-4.82,3.54c-6.18,4.84-13.65,5.57-19.31,6.12-7.13.69-11.95,1.16-17.46-1.45s-10.62-9-12.07-12a26.38,26.38,0,0,1-3.62-8.93c-.42-2.26,0-2.49,0-2.49s2.1,2.69,2.9,3.46c4.82,4.66,13.59,5.87,18.5,5.55a28.28,28.28,0,0,0,8.69-2.66,17.27,17.27,0,0,0,2-1.12,21.31,21.31,0,0,1-3.38-.24c-4.83-1.06-8.78-6.31-11.66-10.06-6.75-8.78-8.81-18.27-10.38-25.1a91.9,91.9,0,0,1-2.28-16,100.53,100.53,0,0,1-.22-10.19,31.83,31.83,0,0,1,.49-3.81A4.29,4.29,0,0,1,883.8,209.22Z"/><path class="cls-2" d="M1041.61,202.42a13.88,13.88,0,0,0-4.59-3,16,16,0,0,0-8.32-.36,25.14,25.14,0,0,0-8.45,3.5,63.29,63.29,0,0,0-7.12,5c-3.92,2.89-8,5.9-12.55,7.72a27.35,27.35,0,0,1-31.86-7.6c-.68-.84-1.81-2.17-1.81-2.17a30.55,30.55,0,0,0,5,7.48,25.57,25.57,0,0,0,8.56,6.4,32,32,0,0,0,13.4,2.53,39.53,39.53,0,0,0-3.86,1.69c-2,1-3.73,1.81-5,3.62a6.87,6.87,0,0,0-1.09,5.19,5.29,5.29,0,0,0,.73,1.33,9.45,9.45,0,0,1,.84-4.23c1.13-2.18,3.78-2.89,6-3.5a20.41,20.41,0,0,1,7.24-.36c8.55.35,15.88-6.4,18.1-8.45,4-3.63,3.23-4.89,8.45-9.53s7.94-5.23,9.41-5.43A20.89,20.89,0,0,1,1041.61,202.42Z"/><path class="cls-2" d="M1007.7,283.27c-.43-4.15,18.47,13.38,2.57,52.57-1.86,4.6-5.72,10.81-10.52,23.74C997,367,984.44,393.53,982.6,403.52c-1.5,8.08-3.45,18.7.32,31.16,1.29,4.26,8.29,25.39,29.93,34,4,1.61,17.45,6.94,31.21,1.57,22-8.58,28.25-38.4,28.81-42.34a59.72,59.72,0,0,0-.81-20.61,73.85,73.85,0,0,1,3.22,10.7c4.17,21.06-6.39,39.64-8,42.18-3.88,6-12.73,19.56-30.57,24.55-24.2,6.78-44-8.14-45.7-9.44-20.15-15.7-20-40.39-20-46.27.12-17.24,5.69-33,8.93-39.19,1.88-3.58,5.95-12.46,9.17-18.42C997,356.75,1013.12,335.19,1007.7,283.27Z"/><path class="cls-2" d="M1012.1,354.34a61.34,61.34,0,0,0-6.74,23.82c-.64,8-1.43,18,5.2,25.13,7.08,7.62,18.07,7.08,20.09,7,14.27-.7,25.47-12.39,29.32-20.91.72-1.6,2.22-5.12,2.22-5.12a67.09,67.09,0,0,1-2.39,8.57,49.46,49.46,0,0,1-14.42,20.06c-4.81,3.93-11.15,9.13-20.65,9.6-2.52.12-10.9.53-17.15-4.78-9.44-8-7.37-23.52-6-34.09A73.58,73.58,0,0,1,1012.1,354.34Z"/><path class="cls-2" d="M997.72,332.8a261,261,0,0,1-18.66,46.66c-3.1,6-8.12,17.47-21,30.58-8.52,8.65-14.39,10.62-17.92,11.58-13.17,3.55-25-4.35-27.68-6.12,0,0-11-7.3-15.45-19.95a44.09,44.09,0,0,1-2.25-12.23,38.17,38.17,0,0,1,.32-5.15,84.81,84.81,0,0,0,4.51,11.59c.24.49,6,11.94,17.38,16.73,10.93,4.62,21.78.85,26.06-.64C980,393,997.72,332.8,997.72,332.8Z"/><polygon class="cls-3" points="1077.16 307.49 1077.16 347.96 1112.62 307.49 1121.53 307.49 1077.16 358.1 1077.16 358.16 1069.25 358.16 1069.25 307.49 1077.16 307.49"/><polygon class="cls-3" points="1092.69 307.49 1092.69 320.13 1084.78 329.21 1084.78 307.49 1092.69 307.49"/><polygon class="cls-3" points="1121.53 358.16 1111.82 358.16 1096.8 345.52 1100.9 340.84 1121.53 358.16"/><polygon class="cls-3" points="1273.55 323.27 1273.55 312.18 1250.32 312.18 1250.32 353.48 1273.55 353.48 1273.55 349.86 1273.55 338.94 1273.55 338.11 1257.93 338.11 1257.93 333.42 1281.46 333.42 1281.46 337.22 1281.46 338.11 1281.46 338.94 1281.46 349.86 1281.46 358.16 1242.4 358.16 1242.4 307.49 1281.46 307.49 1281.46 323.27 1273.55 323.27"/><polygon class="cls-3" points="1393.29 358.16 1354.23 358.16 1354.23 307.49 1362.14 307.49 1362.14 353.48 1385.38 353.48 1385.38 307.49 1393.29 307.49 1393.29 358.16"/><path class="cls-3" d="M1431,353.48h19.43v4.68h-42.87V307.49h7.91v46h7.62v-46H1431Z"/><path class="cls-3" d="M1135.78,307.49v50.67h39.06V307.49Zm31.15,46H1143.7v-41.3h23.23Z"/><polygon class="cls-3" points="1339.98 358.16 1330.27 358.16 1315.24 345.52 1319.35 340.84 1339.98 358.16"/><path class="cls-3" d="M1326.86,317.81V326c0,3.15-4.31,5.7-9.61,5.7h-6.41v4.69h9.61c7.91-.12,14.32-4,14.32-8.67V316.15c0-4.8-6.61-8.72-14.72-8.72h-24.34v50.73h7.92v-46h13.62C1322.55,312.12,1326.86,314.67,1326.86,317.81Z"/><polygon class="cls-3" points="1220.24 307.49 1220.24 337.1 1197.01 307.43 1189.09 307.43 1189.09 358.16 1197.01 358.16 1197.01 318.59 1220.24 348.19 1220.24 358.16 1228.15 358.16 1228.15 307.49 1220.24 307.49"/><rect class="cls-1" x="782.35" y="683.26" width="764.02" height="408.13"/><path class="cls-4" d="M1138.36,710.23a73.69,73.69,0,0,1-2.9,19.95c-4.11,14.12-11.44,23.19-16.73,29.61-17.55,21.26-38.79,31.18-46.67,34.76a293.7,293.7,0,0,1-27.67,10.94c-8.05,2.6-10,2.74-14.81,5.15-5.36,2.69-15.35,7.69-20.59,18.66a35.3,35.3,0,0,0-3.22,16.74,14.23,14.23,0,0,0,1,5.15s0-6.54,3.54-9c3.21-2.22,8.12.06,8.69.33,4.15,1.92,4.76,5.62,7.08,9,7.82,11.41,27.23,10.69,29.29,10.62,6.42-.24,11.11-2,16.09-3.86.22-.09,4.18-2.26,4.18-2.26a16.64,16.64,0,0,1-9-.32c-4.45-1.53-7-5.54-8.37-7.72a25.69,25.69,0,0,1-1.61-3.86,43.6,43.6,0,0,0,9.66,5.79c4.25,1.71,10.42,3.29,19.31,3.7,13.84.64,23-2,30.89-4.35,2.17-.64,30.83-10.2,41.52-32.34,1.26-2.61,3.54-9.49,3.54-9.49s-2.45,2.92-5.47,6a58.42,58.42,0,0,1-14.49,10.7c-8.27,4.25-16.38,4.21-21.88,4.19a43.43,43.43,0,0,1-6.11-.65,80.74,80.74,0,0,0,13.83-2.89,43.17,43.17,0,0,0,19.47-13.28c8.11-9.57,10-20.81,13.68-41.75,2-11.59,2.9-21.89,2.9-21.89a73.48,73.48,0,0,1-5.8,13.52c-2.49,4.53-7.61,13.09-12.71,17.54A29.57,29.57,0,0,1,1129,786.5a24.54,24.54,0,0,1-4.5,0,37.72,37.72,0,0,0,7.35-4.51c2.63-2.13,7-7.07,9.92-17a80.13,80.13,0,0,0,3-27A79.13,79.13,0,0,0,1138.36,710.23Z"/><path class="cls-4" d="M883.8,787.14s6.85,14.67,15.12,26.07c2.88,4,14.93,17.72,35.08,25.1,6.48,2.38,18.9,5.6,29.29,1.61,6-2.28,17.86-7,17.86-7a13.85,13.85,0,0,1,6.27-1.08,8.77,8.77,0,0,1,5.15,2.89c1.59,1.78,2,4,2.9,8.37.14.7.38,4.93.38,4.93s-.38-4.93-2.71-6.54c-1.83-1.26-4.78,1.23-6.44,2.58C979,850.39,974.57,856.74,972,860c-6,7.45-12.84,11-20.12,14.89-8.46,4.46-14.89,5.9-24.45,8a40.25,40.25,0,0,1-16.5-.32,12.15,12.15,0,0,1-2.09-1,58,58,0,0,0,7.64-1.61c3.12-.9,6.49-2.57,11.71-6.48,3.78-2.83,5.43-4.81,6.91-7.57a5.86,5.86,0,0,0,.69-1.8s-3.32,2.36-4.82,3.54c-6.18,4.84-13.65,5.56-19.31,6.11-7.13.7-11.95,1.16-17.46-1.45s-10.62-9-12.07-12a26.49,26.49,0,0,1-3.62-8.93c-.42-2.27,0-2.5,0-2.5s2.1,2.69,2.9,3.46c4.82,4.67,13.59,5.88,18.5,5.55a28.52,28.52,0,0,0,8.69-2.65,18.2,18.2,0,0,0,2-1.13,21.31,21.31,0,0,1-3.38-.24c-4.83-1.06-8.78-6.31-11.66-10.06-6.75-8.77-8.81-18.26-10.38-25.1a91.76,91.76,0,0,1-2.28-16,100.72,100.72,0,0,1-.22-10.2,31.53,31.53,0,0,1,.49-3.8A4.3,4.3,0,0,1,883.8,787.14Z"/><path class="cls-4" d="M1041.61,780.35a13.71,13.71,0,0,0-4.59-3,15.77,15.77,0,0,0-8.32-.36,25.14,25.14,0,0,0-8.45,3.5,63.26,63.26,0,0,0-7.12,4.94c-3.92,2.89-8,5.91-12.55,7.73a27.34,27.34,0,0,1-31.86-7.61c-.68-.84-1.81-2.17-1.81-2.17a30.34,30.34,0,0,0,5,7.48,25.43,25.43,0,0,0,8.56,6.4,31.93,31.93,0,0,0,13.4,2.54,40.6,40.6,0,0,0-3.86,1.68c-2,1-3.73,1.81-5,3.63a6.82,6.82,0,0,0-1.09,5.18,5.1,5.1,0,0,0,.73,1.33,9.39,9.39,0,0,1,.84-4.22c1.13-2.18,3.78-2.9,6-3.5a19.94,19.94,0,0,1,7.24-.36c8.55.34,15.88-6.4,18.1-8.45,4-3.63,3.23-4.89,8.45-9.54s7.94-5.22,9.41-5.43A20.73,20.73,0,0,1,1041.61,780.35Z"/><path class="cls-4" d="M1007.7,861.2c-.43-4.16,18.47,13.37,2.57,52.56-1.86,4.6-5.72,10.81-10.52,23.74-2.74,7.4-15.31,34-17.15,43.94-1.5,8.09-3.45,18.71.32,31.17,1.29,4.25,8.29,25.39,29.93,34,4,1.61,17.45,7,31.21,1.58,22-8.58,28.25-38.4,28.81-42.34a59.76,59.76,0,0,0-.81-20.62,74.32,74.32,0,0,1,3.22,10.7c4.17,21.06-6.39,39.64-8,42.18-3.88,6-12.73,19.56-30.57,24.56-24.2,6.77-44-8.15-45.7-9.45-20.15-15.69-20-40.38-20-46.27.12-17.24,5.69-33,8.93-39.19,1.88-3.58,5.95-12.45,9.17-18.41C997,934.68,1013.12,913.12,1007.7,861.2Z"/><path class="cls-4" d="M1012.1,932.27a61.34,61.34,0,0,0-6.74,23.82c-.64,8-1.43,18,5.2,25.12,7.08,7.62,18.07,7.09,20.09,7,14.27-.7,25.47-12.39,29.32-20.92.72-1.6,2.22-5.12,2.22-5.12a67.51,67.51,0,0,1-2.39,8.58,49.39,49.39,0,0,1-14.42,20c-4.81,3.94-11.15,9.13-20.65,9.6-2.52.12-10.9.54-17.15-4.77-9.44-8-7.37-23.53-6-34.1A73.49,73.49,0,0,1,1012.1,932.27Z"/><path class="cls-4" d="M997.72,910.72a260.71,260.71,0,0,1-18.66,46.66c-3.1,6-8.12,17.48-21,30.58-8.52,8.65-14.39,10.63-17.92,11.58-13.17,3.56-25-4.35-27.68-6.11,0,0-11-7.3-15.45-19.95a44.15,44.15,0,0,1-2.25-12.23,38,38,0,0,1,.32-5.15,85,85,0,0,0,4.51,11.58c.24.49,6,11.94,17.38,16.74,10.93,4.62,21.78.84,26.06-.65C980,970.92,997.72,910.72,997.72,910.72Z"/><polygon class="cls-4" points="1077.16 885.41 1077.16 925.88 1112.62 885.41 1121.53 885.41 1077.16 936.03 1077.16 936.09 1069.25 936.09 1069.25 885.41 1077.16 885.41"/><polygon class="cls-4" points="1092.69 885.41 1092.69 898.05 1084.78 907.13 1084.78 885.41 1092.69 885.41"/><polygon class="cls-4" points="1121.53 936.09 1111.82 936.09 1096.8 923.45 1100.9 918.76 1121.53 936.09"/><polygon class="cls-4" points="1273.55 901.2 1273.55 890.1 1250.32 890.1 1250.32 931.4 1273.55 931.4 1273.55 927.78 1273.55 916.86 1273.55 916.03 1257.93 916.03 1257.93 911.35 1281.46 911.35 1281.46 915.14 1281.46 916.03 1281.46 916.86 1281.46 927.78 1281.46 936.09 1242.4 936.09 1242.4 885.41 1281.46 885.41 1281.46 901.2 1273.55 901.2"/><polygon class="cls-4" points="1393.29 936.09 1354.23 936.09 1354.23 885.41 1362.14 885.41 1362.14 931.4 1385.38 931.4 1385.38 885.41 1393.29 885.41 1393.29 936.09"/><path class="cls-4" d="M1431,931.4h19.43v4.69h-42.87V885.41h7.91v46h7.62v-46H1431Z"/><path class="cls-4" d="M1135.78,885.41v50.68h39.06V885.41Zm31.15,46H1143.7V890.1h23.23Z"/><polygon class="cls-4" points="1339.98 936.09 1330.27 936.09 1315.24 923.45 1319.35 918.76 1339.98 936.09"/><path class="cls-4" d="M1326.86,895.74v8.19c0,3.14-4.31,5.69-9.61,5.69h-6.41v4.69h9.61c7.91-.12,14.32-4,14.32-8.66V894.08c0-4.81-6.61-8.72-14.72-8.72h-24.34v50.73h7.92V890h13.62C1322.55,890,1326.86,892.59,1326.86,895.74Z"/><polygon class="cls-4" points="1220.24 885.41 1220.24 915.02 1197.01 885.36 1189.09 885.36 1189.09 936.09 1197.01 936.09 1197.01 896.51 1220.24 926.12 1220.24 936.09 1228.15 936.09 1228.15 885.41 1220.24 885.41"/><rect class="cls-4" x="782.35" y="1281.03" width="764.02" height="408.13"/><path class="cls-1" d="M1138.36,1308a73.64,73.64,0,0,1-2.9,20c-4.11,14.12-11.44,23.19-16.73,29.61-17.55,21.26-38.79,31.18-46.67,34.76a293.7,293.7,0,0,1-27.67,10.94c-8.05,2.6-10,2.74-14.81,5.15-5.36,2.69-15.35,7.69-20.59,18.66a35.3,35.3,0,0,0-3.22,16.74,14.23,14.23,0,0,0,1,5.15s0-6.53,3.54-9c3.21-2.23,8.12,0,8.69.32,4.15,1.92,4.76,5.62,7.08,9,7.82,11.41,27.23,10.7,29.29,10.62,6.42-.24,11.11-2,16.09-3.86.22-.08,4.18-2.26,4.18-2.26a16.64,16.64,0,0,1-9-.32c-4.45-1.53-7-5.54-8.37-7.72a25.69,25.69,0,0,1-1.61-3.86,43.6,43.6,0,0,0,9.66,5.79c4.25,1.71,10.42,3.29,19.31,3.7,13.84.64,23-2,30.89-4.34,2.17-.65,30.83-10.2,41.52-32.35,1.26-2.61,3.54-9.49,3.54-9.49s-2.45,2.92-5.47,6a58.17,58.17,0,0,1-14.49,10.7c-8.27,4.25-16.38,4.21-21.88,4.19a43.43,43.43,0,0,1-6.11-.65,80.74,80.74,0,0,0,13.83-2.89,43.17,43.17,0,0,0,19.47-13.28c8.11-9.57,10-20.8,13.68-41.75,2-11.58,2.9-21.89,2.9-21.89a73.48,73.48,0,0,1-5.8,13.52c-2.49,4.53-7.61,13.09-12.71,17.54-5.93,5.18-11.42,7-15.93,7.56a24.54,24.54,0,0,1-4.5,0,38,38,0,0,0,7.35-4.5c2.63-2.13,7-7.08,9.92-17.06a80.13,80.13,0,0,0,3-27A79.13,79.13,0,0,0,1138.36,1308Z"/><path class="cls-1" d="M883.8,1384.92s6.85,14.66,15.12,26.06c2.88,4,14.93,17.72,35.08,25.1,6.48,2.38,18.9,5.6,29.29,1.61,6-2.28,17.86-7,17.86-7a14,14,0,0,1,6.27-1.08,8.83,8.83,0,0,1,5.15,2.89c1.59,1.78,2,4,2.9,8.37.14.7.38,4.94.38,4.94s-.38-4.94-2.71-6.55c-1.83-1.25-4.78,1.23-6.44,2.58-7.73,6.28-12.13,12.63-14.72,15.85-6,7.44-12.84,11-20.12,14.88-8.46,4.47-14.89,5.91-24.45,8.05a40.35,40.35,0,0,1-16.5-.33,12.15,12.15,0,0,1-2.09-1,58,58,0,0,0,7.64-1.61c3.12-.9,6.49-2.57,11.71-6.48,3.78-2.83,5.43-4.81,6.91-7.57a5.86,5.86,0,0,0,.69-1.8s-3.32,2.36-4.82,3.54c-6.18,4.84-13.65,5.57-19.31,6.12-7.13.69-11.95,1.16-17.46-1.45s-10.62-9-12.07-12a26.49,26.49,0,0,1-3.62-8.93c-.42-2.27,0-2.5,0-2.5s2.1,2.69,2.9,3.46c4.82,4.67,13.59,5.88,18.5,5.56a28.56,28.56,0,0,0,8.69-2.66,16.48,16.48,0,0,0,2-1.13,21.31,21.31,0,0,1-3.38-.24c-4.83-1.06-8.78-6.31-11.66-10-6.75-8.78-8.81-18.27-10.38-25.11a91.61,91.61,0,0,1-2.28-16,100.57,100.57,0,0,1-.22-10.19,31.34,31.34,0,0,1,.49-3.81A4.29,4.29,0,0,1,883.8,1384.92Z"/><path class="cls-1" d="M1041.61,1378.12a13.71,13.71,0,0,0-4.59-3,15.88,15.88,0,0,0-8.32-.36,25.14,25.14,0,0,0-8.45,3.5,63.29,63.29,0,0,0-7.12,5c-3.92,2.89-8,5.9-12.55,7.72a27.35,27.35,0,0,1-31.86-7.6c-.68-.84-1.81-2.18-1.81-2.18a30.5,30.5,0,0,0,5,7.49,25.57,25.57,0,0,0,8.56,6.39,31.93,31.93,0,0,0,13.4,2.54,39.53,39.53,0,0,0-3.86,1.69c-2,1-3.73,1.81-5,3.62a6.84,6.84,0,0,0-1.09,5.19,5.16,5.16,0,0,0,.73,1.32,9.39,9.39,0,0,1,.84-4.22c1.13-2.18,3.78-2.89,6-3.5a20.18,20.18,0,0,1,7.24-.36c8.55.34,15.88-6.4,18.1-8.45,4-3.63,3.23-4.89,8.45-9.53s7.94-5.23,9.41-5.43A20.58,20.58,0,0,1,1041.61,1378.12Z"/><path class="cls-1" d="M1007.7,1459c-.43-4.16,18.47,13.38,2.57,52.57-1.86,4.6-5.72,10.81-10.52,23.74-2.74,7.39-15.31,34-17.15,43.94-1.5,8.08-3.45,18.7.32,31.16,1.29,4.25,8.29,25.39,29.93,34,4,1.61,17.45,6.94,31.21,1.57,22-8.58,28.25-38.4,28.81-42.34a59.79,59.79,0,0,0-.81-20.62,74.19,74.19,0,0,1,3.22,10.71c4.17,21-6.39,39.64-8,42.18-3.88,5.95-12.73,19.56-30.57,24.55-24.2,6.78-44-8.15-45.7-9.44-20.15-15.7-20-40.39-20-46.28.12-17.24,5.69-33,8.93-39.19,1.88-3.57,5.95-12.45,9.17-18.41C997,1532.45,1013.12,1510.89,1007.7,1459Z"/><path class="cls-1" d="M1012.1,1530a61.34,61.34,0,0,0-6.74,23.82c-.64,8-1.43,18,5.2,25.12,7.08,7.62,18.07,7.09,20.09,7,14.27-.7,25.47-12.39,29.32-20.92.72-1.6,2.22-5.12,2.22-5.12a67.51,67.51,0,0,1-2.39,8.58,49.39,49.39,0,0,1-14.42,20c-4.81,3.94-11.15,9.13-20.65,9.6-2.52.13-10.9.54-17.15-4.77-9.44-8-7.37-23.53-6-34.09A73.5,73.5,0,0,1,1012.1,1530Z"/><path class="cls-1" d="M997.72,1508.49a261,261,0,0,1-18.66,46.67c-3.1,6-8.12,17.47-21,30.57-8.52,8.66-14.39,10.63-17.92,11.58-13.17,3.56-25-4.35-27.68-6.11,0,0-11-7.3-15.45-20a44.09,44.09,0,0,1-2.25-12.23,38,38,0,0,1,.32-5.15,85,85,0,0,0,4.51,11.58c.24.49,6,11.94,17.38,16.74,10.93,4.62,21.78.85,26.06-.64C980,1568.69,997.72,1508.49,997.72,1508.49Z"/><polygon class="cls-1" points="1077.16 1483.19 1077.16 1523.65 1112.62 1483.19 1121.53 1483.19 1077.16 1533.8 1077.16 1533.86 1069.25 1533.86 1069.25 1483.19 1077.16 1483.19"/><polygon class="cls-1" points="1092.69 1483.19 1092.69 1495.83 1084.78 1504.9 1084.78 1483.19 1092.69 1483.19"/><polygon class="cls-1" points="1121.53 1533.86 1111.82 1533.86 1096.8 1521.22 1100.9 1516.53 1121.53 1533.86"/><polygon class="cls-1" points="1273.55 1498.97 1273.55 1487.87 1250.32 1487.87 1250.32 1529.17 1273.55 1529.17 1273.55 1525.55 1273.55 1514.63 1273.55 1513.8 1257.93 1513.8 1257.93 1509.12 1281.46 1509.12 1281.46 1512.91 1281.46 1513.8 1281.46 1514.63 1281.46 1525.55 1281.46 1533.86 1242.4 1533.86 1242.4 1483.19 1281.46 1483.19 1281.46 1498.97 1273.55 1498.97"/><polygon class="cls-1" points="1393.29 1533.86 1354.23 1533.86 1354.23 1483.19 1362.14 1483.19 1362.14 1529.17 1385.38 1529.17 1385.38 1483.19 1393.29 1483.19 1393.29 1533.86"/><path class="cls-1" d="M1431,1529.17h19.43v4.69h-42.87v-50.67h7.91v46h7.62v-46H1431Z"/><path class="cls-1" d="M1135.78,1483.19v50.67h39.06v-50.67Zm31.15,46H1143.7v-41.3h23.23Z"/><polygon class="cls-1" points="1339.98 1533.86 1330.27 1533.86 1315.24 1521.22 1319.35 1516.53 1339.98 1533.86"/><path class="cls-1" d="M1326.86,1493.51v8.19c0,3.14-4.31,5.7-9.61,5.7h-6.41v4.68h9.61c7.91-.12,14.32-4,14.32-8.66v-11.57c0-4.81-6.61-8.72-14.72-8.72h-24.34v50.73h7.92v-46h13.62C1322.55,1487.81,1326.86,1490.37,1326.86,1493.51Z"/><polygon class="cls-1" points="1220.24 1483.19 1220.24 1512.8 1197.01 1483.13 1189.09 1483.13 1189.09 1533.86 1197.01 1533.86 1197.01 1494.28 1220.24 1523.89 1220.24 1533.86 1228.15 1533.86 1228.15 1483.19 1220.24 1483.19"/></svg>