<svg id="Layer_1" data-name="Layer 1" xmlns="http://www.w3.org/2000/svg" viewBox="0 0 381.15 430.9"><defs><style>.cls-1{fill:#231f20;}</style></defs><title>Artboard 3</title><path class="cls-1" d="M303.2,0a72.9,72.9,0,0,1-2.9,20c-4.1,14.12-11.43,23.19-16.73,29.61C266,70.82,244.79,80.74,236.91,84.32a293.2,293.2,0,0,1-27.68,10.94c-8,2.6-10,2.74-14.8,5.15-5.37,2.69-15.36,7.69-20.6,18.66a35.43,35.43,0,0,0-3.22,16.74,14.08,14.08,0,0,0,1,5.15s0-6.54,3.54-9c3.2-2.22,8.11.06,8.69.33,4.15,1.92,4.76,5.62,7.08,9,7.81,11.41,27.22,10.69,29.28,10.62,6.43-.24,11.11-2,16.09-3.86.22-.09,4.19-2.26,4.19-2.26a16.64,16.64,0,0,1-9-.32c-4.46-1.53-7-5.54-8.37-7.72a24.63,24.63,0,0,1-1.61-3.86,43.68,43.68,0,0,0,9.65,5.79c4.25,1.71,10.43,3.29,19.31,3.7,13.84.64,23-2,30.9-4.35,2.16-.64,30.83-10.2,41.51-32.34,1.26-2.61,3.54-9.49,3.54-9.49s-2.45,2.92-5.47,6a58.34,58.34,0,0,1-14.48,10.7c-8.27,4.25-16.39,4.21-21.88,4.19a43.66,43.66,0,0,1-6.12-.65,81,81,0,0,0,13.84-2.89,43.23,43.23,0,0,0,19.47-13.28c8.1-9.57,10-20.81,13.68-41.75,2-11.59,2.89-21.89,2.89-21.89a73.81,73.81,0,0,1-5.79,13.52c-2.5,4.53-7.62,13.09-12.71,17.54a29.63,29.63,0,0,1-15.93,7.56,24.64,24.64,0,0,1-4.51,0,37.41,37.41,0,0,0,7.35-4.51c2.64-2.13,7-7.08,9.92-17.05a80.1,80.1,0,0,0,3-27A78.88,78.88,0,0,0,303.2,0Z"/><path class="cls-1" d="M48.64,76.91S55.49,91.58,63.77,103c2.88,4,14.92,17.72,35.08,25.1,6.47,2.38,18.89,5.6,29.28,1.61,6-2.28,17.86-7,17.86-7a13.88,13.88,0,0,1,6.28-1.08,8.81,8.81,0,0,1,5.15,2.89c1.59,1.78,2,4,2.89,8.37.14.7.38,4.93.38,4.93s-.38-4.93-2.71-6.54c-1.82-1.26-4.77,1.23-6.43,2.58-7.74,6.28-12.13,12.63-14.73,15.84-6,7.45-12.83,11.05-20.11,14.89-8.46,4.46-14.9,5.9-24.46,8a40.2,40.2,0,0,1-16.49-.32,11.78,11.78,0,0,1-2.09-1,58,58,0,0,0,7.64-1.61c3.11-.9,6.49-2.57,11.7-6.48,3.79-2.83,5.44-4.81,6.91-7.57a5.77,5.77,0,0,0,.7-1.8s-3.32,2.36-4.83,3.54c-6.18,4.84-13.65,5.56-19.31,6.11-7.12.7-12,1.16-17.46-1.45s-10.62-9-12.07-12a26.49,26.49,0,0,1-3.62-8.93c-.42-2.27,0-2.5,0-2.5s2.1,2.69,2.9,3.46c4.83,4.67,13.6,5.88,18.51,5.55a28.55,28.55,0,0,0,8.68-2.65,19,19,0,0,0,2-1.13,21.25,21.25,0,0,1-3.38-.24c-4.83-1.06-8.79-6.31-11.67-10.06-6.74-8.77-8.81-18.26-10.38-25.1a92.74,92.74,0,0,1-2.28-16c-.25-3.55-.33-8.63-.21-10.2a28.51,28.51,0,0,1,.48-3.8A4.3,4.3,0,0,1,48.64,76.91Z"/><path class="cls-1" d="M206.45,70.12a13.62,13.62,0,0,0-4.58-3,15.81,15.81,0,0,0-8.33-.36,25.23,25.23,0,0,0-8.45,3.5A63.26,63.26,0,0,0,178,75.18c-3.92,2.89-8,5.91-12.55,7.73a27.34,27.34,0,0,1-31.86-7.61c-.68-.84-1.81-2.17-1.81-2.17a30.69,30.69,0,0,0,4.95,7.48,25.61,25.61,0,0,0,8.57,6.4,31.93,31.93,0,0,0,13.4,2.54,41.26,41.26,0,0,0-3.87,1.68c-2,1-3.73,1.81-4.94,3.63a6.78,6.78,0,0,0-1.09,5.18,4.88,4.88,0,0,0,.72,1.33,9.32,9.32,0,0,1,.85-4.22c1.12-2.18,3.78-2.9,6-3.5a20,20,0,0,1,7.24-.36c8.55.34,15.88-6.4,18.11-8.45,3.94-3.63,3.22-4.89,8.44-9.54s7.94-5.22,9.42-5.43A20.65,20.65,0,0,1,206.45,70.12Z"/><path class="cls-1" d="M172.54,151c-.43-4.16,18.48,13.37,2.58,52.56-1.87,4.6-5.73,10.81-10.52,23.74-2.75,7.4-15.32,34-17.16,43.94-1.49,8.09-3.45,18.71.32,31.17,1.29,4.25,8.3,25.39,29.93,34,4.05,1.61,17.46,6.95,31.22,1.58,22-8.58,28.25-38.4,28.8-42.34a59.62,59.62,0,0,0-.8-20.62,74.94,74.94,0,0,1,3.21,10.7c4.18,21.06-6.39,39.64-8,42.18-3.88,6-12.74,19.56-30.57,24.56-24.2,6.77-44-8.15-45.7-9.45-20.16-15.69-20-40.38-19.95-46.27.11-17.24,5.69-33,8.93-39.19,1.87-3.58,5.94-12.45,9.17-18.41C161.89,224.45,178,202.89,172.54,151Z"/><path class="cls-1" d="M177,222a61.45,61.45,0,0,0-6.75,23.82c-.63,8-1.43,18,5.21,25.12,7.08,7.62,18.07,7.09,20.08,7,14.27-.7,25.47-12.39,29.33-20.92.72-1.6,2.21-5.12,2.21-5.12a68.54,68.54,0,0,1-2.38,8.58,49.38,49.38,0,0,1-14.43,20.05c-4.8,3.94-11.15,9.13-20.64,9.6-2.53.12-10.91.54-17.15-4.77-9.45-8-7.38-23.53-6-34.1A73.49,73.49,0,0,1,177,222Z"/><path class="cls-1" d="M162.57,200.49a261.24,261.24,0,0,1-18.67,46.66c-3.1,6-8.11,17.48-21,30.58-8.52,8.65-14.38,10.63-17.92,11.58-13.17,3.56-25-4.35-27.67-6.11,0,0-11-7.3-15.45-19.95A43.77,43.77,0,0,1,59.59,251a38,38,0,0,1,.32-5.15,85.68,85.68,0,0,0,4.5,11.58c.24.49,6,11.94,17.38,16.74,10.94,4.62,21.78.84,26.07-.65C144.82,260.69,162.57,200.49,162.57,200.49Z"/><polygon class="cls-1" points="7.91 380.22 7.91 420.69 43.37 380.22 52.28 380.22 7.91 430.84 7.91 430.9 0 430.9 0 380.22 7.91 380.22"/><polygon class="cls-1" points="23.43 380.22 23.43 392.86 15.52 401.94 15.52 380.22 23.43 380.22"/><polygon class="cls-1" points="52.28 430.9 42.56 430.9 27.54 418.26 31.65 413.57 52.28 430.9"/><polygon class="cls-1" points="204.3 396.01 204.3 384.91 181.06 384.91 181.06 426.21 204.3 426.21 204.3 422.59 204.3 411.67 204.3 410.84 188.67 410.84 188.67 406.15 212.21 406.15 212.21 409.95 212.21 410.84 212.21 411.67 212.21 422.59 212.21 430.9 173.15 430.9 173.15 380.22 212.21 380.22 212.21 396.01 204.3 396.01"/><polygon class="cls-1" points="324.04 430.9 284.98 430.9 284.98 380.22 292.89 380.22 292.89 426.21 316.13 426.21 316.13 380.22 324.04 380.22 324.04 430.9"/><path class="cls-1" d="M361.72,426.21h19.43v4.69H338.29V380.22h7.91v46h7.61v-46h7.91Z"/><path class="cls-1" d="M66.53,380.22V430.9h39.06V380.22Zm31.15,46H74.44v-41.3H97.68Z"/><polygon class="cls-1" points="270.73 430.9 261.01 430.9 245.99 418.26 250.1 413.57 270.73 430.9"/><path class="cls-1" d="M257.61,390.55v8.19c0,3.14-4.31,5.69-9.62,5.69h-6.41v4.69h9.62c7.91-.12,14.32-4,14.32-8.66V388.89c0-4.81-6.61-8.72-14.72-8.72H226.46V430.9h7.91v-46H248C253.3,384.85,257.61,387.4,257.61,390.55Z"/><polygon class="cls-1" points="150.99 380.22 150.99 409.83 127.75 380.17 119.84 380.17 119.84 430.9 127.75 430.9 127.75 391.32 150.99 420.93 150.99 430.9 158.9 430.9 158.9 380.22 150.99 380.22"/></svg>