<svg id="Layer_1" data-name="Layer 1" xmlns="http://www.w3.org/2000/svg" viewBox="0 0 572.1 354.18"><defs><style>.cls-1{fill:#231f20;}</style></defs><title>Artboard 6</title><path class="cls-1" d="M260.05,0a73.22,73.22,0,0,1-2.89,20c-4.11,14.12-11.44,23.19-16.74,29.61-17.54,21.26-38.78,31.18-46.66,34.76a293.2,293.2,0,0,1-27.68,10.94c-8,2.6-10,2.74-14.8,5.15-5.37,2.69-15.36,7.69-20.6,18.66a35.26,35.26,0,0,0-3.21,16.74,14.23,14.23,0,0,0,1,5.15s0-6.54,3.54-9c3.2-2.22,8.11.06,8.69.33,4.15,1.92,4.76,5.62,7.08,9C155.56,152.69,175,152,177,151.9c6.43-.24,11.12-2,16.1-3.86.21-.09,4.18-2.26,4.18-2.26a16.64,16.64,0,0,1-9-.32c-4.45-1.53-7-5.54-8.37-7.72a25.69,25.69,0,0,1-1.61-3.86,43.6,43.6,0,0,0,9.66,5.79c4.25,1.71,10.42,3.29,19.31,3.7,13.83.64,23-2,30.89-4.35,2.16-.64,30.83-10.2,41.51-32.34,1.27-2.61,3.54-9.49,3.54-9.49s-2.44,2.92-5.47,6a58.34,58.34,0,0,1-14.48,10.7c-8.27,4.25-16.38,4.21-21.88,4.19a43.66,43.66,0,0,1-6.12-.65,80.76,80.76,0,0,0,13.84-2.89,43.23,43.23,0,0,0,19.47-13.28c8.11-9.57,10-20.81,13.68-41.75,2.05-11.59,2.89-21.89,2.89-21.89a73.81,73.81,0,0,1-5.79,13.52c-2.5,4.53-7.61,13.09-12.71,17.54a29.6,29.6,0,0,1-15.93,7.56,24.52,24.52,0,0,1-4.5,0,37.49,37.49,0,0,0,7.34-4.51c2.64-2.13,7-7.08,9.93-17.05a80.39,80.39,0,0,0,3-27A78.88,78.88,0,0,0,260.05,0Z"/><path class="cls-1" d="M5.5,76.91S12.35,91.58,20.62,103c2.88,4,14.92,17.72,35.08,25.1,6.48,2.38,18.9,5.6,29.29,1.61,6-2.28,17.86-7,17.86-7a13.85,13.85,0,0,1,6.27-1.08,8.77,8.77,0,0,1,5.15,2.89c1.59,1.78,2,4,2.9,8.37.13.7.37,4.93.37,4.93s-.37-4.93-2.71-6.54c-1.82-1.26-4.77,1.23-6.43,2.58-7.73,6.28-12.13,12.63-14.73,15.84-6,7.45-12.83,11.05-20.11,14.89-8.46,4.46-14.89,5.9-24.46,8a40.19,40.19,0,0,1-16.49-.32,12.15,12.15,0,0,1-2.09-1,58,58,0,0,0,7.64-1.61c3.11-.9,6.49-2.57,11.71-6.48,3.78-2.83,5.43-4.81,6.9-7.57a5.77,5.77,0,0,0,.7-1.8s-3.32,2.36-4.83,3.54C46.46,162.29,39,163,33.33,163.56c-7.12.7-11.95,1.16-17.45-1.45s-10.62-9-12.07-12A26.49,26.49,0,0,1,.19,141.2c-.42-2.27,0-2.5,0-2.5s2.1,2.69,2.89,3.46c4.83,4.67,13.6,5.88,18.51,5.55a28.52,28.52,0,0,0,8.69-2.65,18.2,18.2,0,0,0,2-1.13,21.25,21.25,0,0,1-3.38-.24c-4.83-1.06-8.79-6.31-11.67-10.06-6.74-8.77-8.81-18.26-10.38-25.1a91.9,91.9,0,0,1-2.27-16,100.76,100.76,0,0,1-.22-10.2,32.8,32.8,0,0,1,.48-3.8A4.4,4.4,0,0,1,5.5,76.91Z"/><path class="cls-1" d="M163.31,70.12a13.71,13.71,0,0,0-4.59-3,15.81,15.81,0,0,0-8.33-.36,25.17,25.17,0,0,0-8.44,3.5,62.36,62.36,0,0,0-7.12,4.94c-3.93,2.89-8,5.91-12.55,7.73A27.34,27.34,0,0,1,90.42,75.3c-.69-.84-1.81-2.17-1.81-2.17a30.47,30.47,0,0,0,4.94,7.48,25.61,25.61,0,0,0,8.57,6.4,31.93,31.93,0,0,0,13.4,2.54,40.6,40.6,0,0,0-3.86,1.68c-2,1-3.73,1.81-5,3.63a6.78,6.78,0,0,0-1.09,5.18,4.8,4.8,0,0,0,.73,1.33,9.39,9.39,0,0,1,.84-4.22c1.12-2.18,3.78-2.9,6-3.5a20,20,0,0,1,7.25-.36c8.55.34,15.87-6.4,18.1-8.45,3.94-3.63,3.23-4.89,8.45-9.54s7.93-5.22,9.41-5.43A20.73,20.73,0,0,1,163.31,70.12Z"/><path class="cls-1" d="M129.4,151c-.44-4.16,18.47,13.37,2.57,52.56-1.86,4.6-5.72,10.81-10.52,23.74-2.74,7.4-15.31,34-17.16,43.94-1.49,8.09-3.45,18.71.33,31.17,1.28,4.25,8.29,25.39,29.93,34,4,1.61,17.45,6.95,31.21,1.58,22-8.58,28.25-38.4,28.8-42.34a59.62,59.62,0,0,0-.8-20.62,74.32,74.32,0,0,1,3.22,10.7c4.17,21.06-6.39,39.64-8,42.18-3.88,6-12.74,19.56-30.57,24.56-24.2,6.77-44-8.15-45.7-9.45-20.15-15.69-20-40.38-20-46.27.11-17.24,5.69-33,8.93-39.19,1.88-3.58,6-12.45,9.17-18.41C118.74,224.45,134.81,202.89,129.4,151Z"/><path class="cls-1" d="M133.8,222a61.45,61.45,0,0,0-6.75,23.82c-.63,8-1.43,18,5.21,25.12,7.08,7.62,18.07,7.09,20.08,7,14.27-.7,25.47-12.39,29.33-20.92.72-1.6,2.22-5.12,2.22-5.12a69.42,69.42,0,0,1-2.39,8.58,49.49,49.49,0,0,1-14.42,20.05c-4.81,3.94-11.16,9.13-20.65,9.6-2.53.12-10.91.54-17.15-4.77-9.44-8-7.37-23.53-6-34.1A73.49,73.49,0,0,1,133.8,222Z"/><path class="cls-1" d="M119.42,200.49a261.24,261.24,0,0,1-18.67,46.66c-3.09,6-8.11,17.48-21,30.58-8.52,8.65-14.39,10.63-17.93,11.58-13.16,3.56-25-4.35-27.67-6.11,0,0-10.95-7.3-15.45-19.95A44.15,44.15,0,0,1,16.44,251a38,38,0,0,1,.32-5.15,85,85,0,0,0,4.51,11.58c.23.49,6,11.94,17.37,16.74,10.94,4.62,21.79.84,26.07-.65C101.68,260.69,119.42,200.49,119.42,200.49Z"/><polygon class="cls-1" points="198.86 175.19 198.86 215.65 234.32 175.19 243.23 175.19 198.86 225.8 198.86 225.86 190.95 225.86 190.95 175.19 198.86 175.19"/><polygon class="cls-1" points="214.39 175.19 214.39 187.82 206.47 196.9 206.47 175.19 214.39 175.19"/><polygon class="cls-1" points="243.23 225.86 233.51 225.86 218.49 213.22 222.6 208.53 243.23 225.86"/><polygon class="cls-1" points="395.25 190.97 395.25 179.87 372.01 179.87 372.01 221.17 395.25 221.17 395.25 217.55 395.25 206.63 395.25 205.8 379.62 205.8 379.62 201.11 403.16 201.11 403.16 204.91 403.16 205.8 403.16 206.63 403.16 217.55 403.16 225.86 364.1 225.86 364.1 175.19 403.16 175.19 403.16 190.97 395.25 190.97"/><polygon class="cls-1" points="514.99 225.86 475.93 225.86 475.93 175.19 483.84 175.19 483.84 221.17 507.08 221.17 507.08 175.19 514.99 175.19 514.99 225.86"/><path class="cls-1" d="M552.67,221.17H572.1v4.69H529.24V175.18h7.91v46h7.61v-46h7.91Z"/><path class="cls-1" d="M257.48,175.18v50.68h39.06V175.18Zm31.15,46H265.39v-41.3h23.24Z"/><polygon class="cls-1" points="461.68 225.86 451.96 225.86 436.94 213.22 441.05 208.53 461.68 225.86"/><path class="cls-1" d="M448.56,185.51v8.19c0,3.14-4.31,5.69-9.62,5.69h-6.41v4.69h9.62c7.91-.12,14.32-4,14.32-8.66V183.85c0-4.81-6.61-8.72-14.72-8.72H417.41v50.73h7.91V179.81h13.62C444.25,179.81,448.56,182.36,448.56,185.51Z"/><polygon class="cls-1" points="341.94 175.19 341.94 204.79 318.7 175.13 310.79 175.13 310.79 225.86 318.7 225.86 318.7 186.28 341.94 215.89 341.94 225.86 349.85 225.86 349.85 175.19 341.94 175.19"/></svg>